<mxfile host="app.diagrams.net" agent="Mozilla/5.0 (Macintosh; Intel Mac OS X 10_15_7) AppleWebKit/537.36 (KHTML, like Gecko) Chrome/129.0.0.0 Safari/537.36" version="25.0.3">
  <diagram id="C5RBs43oDa-KdzZeNtuy" name="Page-1">
    <mxGraphModel dx="1062" dy="522" grid="0" gridSize="10" guides="1" tooltips="1" connect="1" arrows="1" fold="1" page="1" pageScale="1" pageWidth="827" pageHeight="1169" math="0" shadow="0">
      <root>
        <mxCell id="WIyWlLk6GJQsqaUBKTNV-0" />
        <mxCell id="WIyWlLk6GJQsqaUBKTNV-1" parent="WIyWlLk6GJQsqaUBKTNV-0" />
        <mxCell id="qaZG7rHjtLjeQCTYETwO-7" value="" style="rounded=0;orthogonalLoop=1;jettySize=auto;html=1;exitX=0.5;exitY=1;exitDx=0;exitDy=0;" edge="1" parent="WIyWlLk6GJQsqaUBKTNV-1" source="qaZG7rHjtLjeQCTYETwO-0" target="qaZG7rHjtLjeQCTYETwO-2">
          <mxGeometry relative="1" as="geometry" />
        </mxCell>
        <mxCell id="qaZG7rHjtLjeQCTYETwO-19" value="分配" style="edgeLabel;html=1;align=center;verticalAlign=middle;resizable=0;points=[];" vertex="1" connectable="0" parent="qaZG7rHjtLjeQCTYETwO-7">
          <mxGeometry x="0.1048" relative="1" as="geometry">
            <mxPoint x="2" y="-8" as="offset" />
          </mxGeometry>
        </mxCell>
        <mxCell id="qaZG7rHjtLjeQCTYETwO-0" value="采购组织" style="rounded=0;whiteSpace=wrap;html=1;verticalAlign=middle;fillColor=#d5e8d4;strokeColor=none;" vertex="1" parent="WIyWlLk6GJQsqaUBKTNV-1">
          <mxGeometry x="460" y="620" width="80" height="26" as="geometry" />
        </mxCell>
        <mxCell id="qaZG7rHjtLjeQCTYETwO-1" value="公司" style="rounded=0;whiteSpace=wrap;html=1;verticalAlign=middle;fillColor=#dae8fc;strokeColor=none;flipH=1;" vertex="1" parent="WIyWlLk6GJQsqaUBKTNV-1">
          <mxGeometry x="346" y="732" width="60" height="26" as="geometry" />
        </mxCell>
        <mxCell id="qaZG7rHjtLjeQCTYETwO-2" value="库存组织" style="rounded=0;whiteSpace=wrap;html=1;verticalAlign=middle;fillColor=#dae8fc;strokeColor=none;flipH=1;" vertex="1" parent="WIyWlLk6GJQsqaUBKTNV-1">
          <mxGeometry x="427" y="732" width="60" height="26" as="geometry" />
        </mxCell>
        <mxCell id="qaZG7rHjtLjeQCTYETwO-3" value="部门" style="rounded=0;whiteSpace=wrap;html=1;verticalAlign=middle;fillColor=#dae8fc;strokeColor=none;flipH=1;" vertex="1" parent="WIyWlLk6GJQsqaUBKTNV-1">
          <mxGeometry x="590" y="732" width="60" height="26" as="geometry" />
        </mxCell>
        <mxCell id="qaZG7rHjtLjeQCTYETwO-14" value="" style="edgeStyle=orthogonalEdgeStyle;rounded=0;orthogonalLoop=1;jettySize=auto;html=1;" edge="1" parent="WIyWlLk6GJQsqaUBKTNV-1" source="qaZG7rHjtLjeQCTYETwO-4" target="qaZG7rHjtLjeQCTYETwO-10">
          <mxGeometry relative="1" as="geometry" />
        </mxCell>
        <mxCell id="qaZG7rHjtLjeQCTYETwO-22" value="分配" style="edgeLabel;html=1;align=center;verticalAlign=middle;resizable=0;points=[];" vertex="1" connectable="0" parent="qaZG7rHjtLjeQCTYETwO-14">
          <mxGeometry x="-0.3903" relative="1" as="geometry">
            <mxPoint as="offset" />
          </mxGeometry>
        </mxCell>
        <mxCell id="qaZG7rHjtLjeQCTYETwO-4" value="集团" style="rounded=0;whiteSpace=wrap;html=1;verticalAlign=middle;fillColor=#b0e3e6;strokeColor=none;" vertex="1" parent="WIyWlLk6GJQsqaUBKTNV-1">
          <mxGeometry x="336" y="559" width="80" height="26" as="geometry" />
        </mxCell>
        <mxCell id="qaZG7rHjtLjeQCTYETwO-8" value="" style="rounded=0;orthogonalLoop=1;jettySize=auto;html=1;exitX=0.5;exitY=1;exitDx=0;exitDy=0;entryX=0.5;entryY=0;entryDx=0;entryDy=0;" edge="1" parent="WIyWlLk6GJQsqaUBKTNV-1" source="qaZG7rHjtLjeQCTYETwO-0" target="qaZG7rHjtLjeQCTYETwO-3">
          <mxGeometry relative="1" as="geometry">
            <mxPoint x="500" y="652" as="sourcePoint" />
            <mxPoint x="510" y="742" as="targetPoint" />
          </mxGeometry>
        </mxCell>
        <mxCell id="qaZG7rHjtLjeQCTYETwO-21" value="分配" style="edgeLabel;html=1;align=center;verticalAlign=middle;resizable=0;points=[];" vertex="1" connectable="0" parent="qaZG7rHjtLjeQCTYETwO-8">
          <mxGeometry x="-0.1273" relative="1" as="geometry">
            <mxPoint x="3" y="2" as="offset" />
          </mxGeometry>
        </mxCell>
        <mxCell id="qaZG7rHjtLjeQCTYETwO-9" value="" style="rounded=0;orthogonalLoop=1;jettySize=auto;html=1;exitX=0.5;exitY=1;exitDx=0;exitDy=0;entryX=0.5;entryY=0;entryDx=0;entryDy=0;" edge="1" parent="WIyWlLk6GJQsqaUBKTNV-1" source="qaZG7rHjtLjeQCTYETwO-0" target="qaZG7rHjtLjeQCTYETwO-1">
          <mxGeometry relative="1" as="geometry">
            <mxPoint x="510" y="656" as="sourcePoint" />
            <mxPoint x="630" y="742" as="targetPoint" />
          </mxGeometry>
        </mxCell>
        <mxCell id="qaZG7rHjtLjeQCTYETwO-18" value="分配" style="edgeLabel;html=1;align=center;verticalAlign=middle;resizable=0;points=[];" vertex="1" connectable="0" parent="qaZG7rHjtLjeQCTYETwO-9">
          <mxGeometry x="-0.0787" y="-2" relative="1" as="geometry">
            <mxPoint y="4" as="offset" />
          </mxGeometry>
        </mxCell>
        <mxCell id="qaZG7rHjtLjeQCTYETwO-15" value="" style="edgeStyle=orthogonalEdgeStyle;rounded=0;orthogonalLoop=1;jettySize=auto;html=1;" edge="1" parent="WIyWlLk6GJQsqaUBKTNV-1" source="qaZG7rHjtLjeQCTYETwO-10" target="qaZG7rHjtLjeQCTYETwO-0">
          <mxGeometry relative="1" as="geometry" />
        </mxCell>
        <mxCell id="qaZG7rHjtLjeQCTYETwO-23" value="分配" style="edgeLabel;html=1;align=center;verticalAlign=middle;resizable=0;points=[];" vertex="1" connectable="0" parent="qaZG7rHjtLjeQCTYETwO-15">
          <mxGeometry x="-0.2694" y="-1" relative="1" as="geometry">
            <mxPoint as="offset" />
          </mxGeometry>
        </mxCell>
        <mxCell id="qaZG7rHjtLjeQCTYETwO-10" value="公司" style="rounded=0;whiteSpace=wrap;html=1;verticalAlign=middle;fillColor=#b0e3e6;strokeColor=none;" vertex="1" parent="WIyWlLk6GJQsqaUBKTNV-1">
          <mxGeometry x="336" y="620" width="80" height="26" as="geometry" />
        </mxCell>
        <mxCell id="qaZG7rHjtLjeQCTYETwO-16" value="采购组" style="rounded=0;whiteSpace=wrap;html=1;verticalAlign=middle;fillColor=#dae8fc;strokeColor=none;flipH=1;" vertex="1" parent="WIyWlLk6GJQsqaUBKTNV-1">
          <mxGeometry x="509" y="732" width="60" height="26" as="geometry" />
        </mxCell>
        <mxCell id="qaZG7rHjtLjeQCTYETwO-17" value="" style="rounded=0;orthogonalLoop=1;jettySize=auto;html=1;exitX=0.5;exitY=1;exitDx=0;exitDy=0;entryX=0.5;entryY=0;entryDx=0;entryDy=0;" edge="1" parent="WIyWlLk6GJQsqaUBKTNV-1" source="qaZG7rHjtLjeQCTYETwO-0" target="qaZG7rHjtLjeQCTYETwO-16">
          <mxGeometry relative="1" as="geometry">
            <mxPoint x="505" y="656" as="sourcePoint" />
            <mxPoint x="475" y="742" as="targetPoint" />
          </mxGeometry>
        </mxCell>
        <mxCell id="qaZG7rHjtLjeQCTYETwO-20" value="分配" style="edgeLabel;html=1;align=center;verticalAlign=middle;resizable=0;points=[];" vertex="1" connectable="0" parent="qaZG7rHjtLjeQCTYETwO-17">
          <mxGeometry x="-0.207" y="-2" relative="1" as="geometry">
            <mxPoint x="4" y="3" as="offset" />
          </mxGeometry>
        </mxCell>
      </root>
    </mxGraphModel>
  </diagram>
</mxfile>
